REM DIRINDEX 1\2,1\3,1\4,1\5
REM DIRNAME cjc004,folder01,folder02,folder03,folder04
TITLE ""
FILE "1Q_t_0050-0059.mp3" MP3
  TRACK 01 AUDIO
    TITLE "3:cjc004_1050"
    INDEX 01 00:00:00
  TRACK 02 AUDIO
    TITLE "0:"
    INDEX 01 00:01:28
  TRACK 03 AUDIO
    TITLE "4:cjc004_1051"
    INDEX 01 00:01:56
  TRACK 04 AUDIO
    TITLE "0:"
    INDEX 01 00:03:35
  TRACK 05 AUDIO
    TITLE "5:cjc004_1052"
    INDEX 01 00:03:55
  TRACK 06 AUDIO
    TITLE "0:"
    INDEX 01 00:06:61
  TRACK 07 AUDIO
    TITLE "3:cjc004_1053"
    INDEX 01 00:07:47
  TRACK 08 AUDIO
    TITLE "0:"
    INDEX 01 00:08:52
  TRACK 09 AUDIO
    TITLE "4:cjc004_1054"
    INDEX 01 00:09:00
  TRACK 10 AUDIO
    TITLE "0:"
    INDEX 01 00:10:27
  TRACK 11 AUDIO
    TITLE "5:cjc004_1055"
    INDEX 01 00:10:63
  TRACK 12 AUDIO
    TITLE "0:"
    INDEX 01 00:15:56
  TRACK 13 AUDIO
    TITLE "3:cjc004_1056"
    INDEX 01 00:16:44
  TRACK 14 AUDIO
    TITLE "0:"
    INDEX 01 00:17:65
  TRACK 15 AUDIO
    TITLE "4:cjc004_1057"
    INDEX 01 00:18:03
  TRACK 16 AUDIO
    TITLE "0:"
    INDEX 01 00:19:34
  TRACK 17 AUDIO
    TITLE "5:cjc004_1058"
    INDEX 01 00:19:62
  TRACK 18 AUDIO
    TITLE "0:"
    INDEX 01 00:25:35
  TRACK 19 AUDIO
    TITLE "3:cjc004_1059"
    INDEX 01 00:26:20
  TRACK 20 AUDIO
    TITLE "0:"
    INDEX 01 00:27:41
  TRACK 21 AUDIO
    TITLE "4:cjc004_1060"
    INDEX 01 00:27:55
  TRACK 22 AUDIO
    TITLE "0:"
    INDEX 01 00:29:11
  TRACK 23 AUDIO
    TITLE "5:cjc004_1061"
    INDEX 01 00:29:40
  TRACK 24 AUDIO
    TITLE "0:"
    INDEX 01 00:35:21
  TRACK 25 AUDIO
    TITLE "3:cjc004_1062"
    INDEX 01 00:36:13
  TRACK 26 AUDIO
    TITLE "0:"
    INDEX 01 00:37:20
  TRACK 27 AUDIO
    TITLE "4:cjc004_1063"
    INDEX 01 00:37:44
  TRACK 28 AUDIO
    TITLE "0:"
    INDEX 01 00:39:29
  TRACK 29 AUDIO
    TITLE "5:cjc004_1064"
    INDEX 01 00:39:62
  TRACK 30 AUDIO
    TITLE "0:"
    INDEX 01 00:43:66
  TRACK 31 AUDIO
    TITLE "3:cjc004_1065"
    INDEX 01 00:44:46
  TRACK 32 AUDIO
    TITLE "0:"
    INDEX 01 00:45:61
  TRACK 33 AUDIO
    TITLE "4:cjc004_1066"
    INDEX 01 00:45:71
  TRACK 34 AUDIO
    TITLE "0:"
    INDEX 01 00:47:03
  TRACK 35 AUDIO
    TITLE "5:cjc004_1067"
    INDEX 01 00:47:32
  TRACK 36 AUDIO
    TITLE "0:"
    INDEX 01 00:52:63
  TRACK 37 AUDIO
    TITLE "3:cjc004_1068"
    INDEX 01 00:53:47
  TRACK 38 AUDIO
    TITLE "0:"
    INDEX 01 00:54:62
  TRACK 39 AUDIO
    TITLE "4:cjc004_1069"
    INDEX 01 00:55:04
  TRACK 40 AUDIO
    TITLE "0:"
    INDEX 01 00:56:29
  TRACK 41 AUDIO
    TITLE "5:cjc004_1070"
    INDEX 01 00:56:65
  TRACK 42 AUDIO
    TITLE "0:"
    INDEX 01 01:01:15
  TRACK 43 AUDIO
    TITLE "3:cjc004_1071"
    INDEX 01 01:02:08
  TRACK 44 AUDIO
    TITLE "0:"
    INDEX 01 01:03:22
  TRACK 45 AUDIO
    TITLE "4:cjc004_1072"
    INDEX 01 01:03:45
  TRACK 46 AUDIO
    TITLE "0:"
    INDEX 01 01:05:03
  TRACK 47 AUDIO
    TITLE "5:cjc004_1073"
    INDEX 01 01:05:32
  TRACK 48 AUDIO
    TITLE "0:"
    INDEX 01 01:11:21
  TRACK 49 AUDIO
    TITLE "3:cjc004_1074"
    INDEX 01 01:12:03
  TRACK 50 AUDIO
    TITLE "0:"
    INDEX 01 01:13:00
  TRACK 51 AUDIO
    TITLE "4:cjc004_1075"
    INDEX 01 01:13:34
  TRACK 52 AUDIO
    TITLE "0:"
    INDEX 01 01:14:57
  TRACK 53 AUDIO
    TITLE "5:cjc004_1076"
    INDEX 01 01:15:07
  TRACK 54 AUDIO
    TITLE "0:"
    INDEX 01 01:20:28
  TRACK 55 AUDIO
    TITLE "3:cjc004_1077"
    INDEX 01 01:21:10
  TRACK 56 AUDIO
    TITLE "0:"
    INDEX 01 01:22:23
  TRACK 57 AUDIO
    TITLE "4:cjc004_1078"
    INDEX 01 01:22:54
  TRACK 58 AUDIO
    TITLE "0:"
    INDEX 01 01:24:10
  TRACK 59 AUDIO
    TITLE "5:cjc004_1079"
    INDEX 01 01:24:43
  TRACK 60 AUDIO
    TITLE "0:"
    INDEX 01 01:28:24
